<svg xmlns="http://www.w3.org/2000/svg" style="display name;">
    <symbol id="mail">
        <svg width="20" height="20" viewBox="0 0 20 20" fill="none" xmlns="http://www.w3.org/2000/svg">
            <path fill-rule="evenodd" clip-rule="evenodd" d="M3 3.5H17C17.6497 3.5 18.203 3.91311 18.4114 4.49099L11.2481 9.26656C10.4923 9.77041 9.5077 9.77041 8.75192 9.26656L1.58857 4.49099C1.79701 3.91311 2.35026 3.5 3 3.5ZM1.5 6.23472V15C1.5 15.8284 2.17157 16.5 3 16.5H17C17.8284 16.5 18.5 15.8284 18.5 15V6.23472L12.0801 10.5146C10.8205 11.3544 9.1795 11.3544 7.91987 10.5146L1.5 6.23472ZM0 5C0 3.34315 1.34315 2 3 2H17C18.6569 2 20 3.34315 20 5V15C20 16.6569 18.6569 18 17 18H3C1.34315 18 0 16.6569 0 15V5Z" fill="#000B26" fill-opacity="0.32"/>
        </svg>
    </symbol>

    <symbol id="call">
        <svg width="20" height="20" viewBox="0 0 20 20" fill="none" xmlns="http://www.w3.org/2000/svg">
            <path fill-rule="evenodd" clip-rule="evenodd" d="M4.5325 1.61307C4.21421 1.83674 3.73913 2.23444 3.16024 2.91438C2.48981 3.70184 2.08498 4.63876 2.10421 5.58059C2.14871 7.76028 3.15893 10.8115 6.17459 13.8272C9.26116 16.9138 12.3229 17.9083 14.4923 17.9154C15.3875 17.9183 16.2749 17.529 17.0295 16.8935C17.7348 16.2994 18.15 15.8033 18.3836 15.471C18.3777 15.4582 18.3641 15.4364 18.3347 15.4129L15.0179 12.7594C14.9184 12.6798 14.775 12.6878 14.685 12.7779L14.052 13.4108C13.1895 14.2733 11.803 14.5045 10.7311 13.7711C8.89575 12.5154 7.42306 11.0092 6.22991 9.26966C5.49172 8.1934 5.72445 6.79816 6.59617 5.93396L7.22085 5.31467C7.31161 5.2247 7.3199 5.08075 7.24006 4.98096L4.57993 1.6558C4.56428 1.63624 4.54884 1.6234 4.53671 1.61564C4.53523 1.6147 4.53383 1.61384 4.5325 1.61307ZM2.01811 1.94199C2.68646 1.15697 3.264 0.667714 3.6962 0.367538C4.43833 -0.147887 5.30361 0.15923 5.75124 0.718759L8.41136 4.04391C8.97022 4.74248 8.91222 5.75008 8.2769 6.37992L7.65223 6.9992C7.23923 7.40864 7.18185 8.00562 7.4669 8.42122C8.55917 10.0137 9.90134 11.3859 11.5781 12.5331C11.9903 12.8151 12.5824 12.7591 12.9913 12.3501L13.6243 11.7172C14.2548 11.0867 15.2586 11.0311 15.9549 11.5881L19.2718 14.2416C19.8409 14.6969 20.1415 15.5735 19.622 16.3176C19.3114 16.7624 18.8047 17.3594 17.9958 18.0407C17.0433 18.8429 15.8239 19.4198 14.4874 19.4154C11.8678 19.4068 8.43986 18.2138 5.11393 14.8879C1.85533 11.6293 0.657769 8.21959 0.604523 5.61121C0.576034 4.21564 1.17298 2.93464 2.01811 1.94199Z" fill="#000B26" fill-opacity="0.32"/>
        </svg>
    </symbol>

    <symbol id="map">
        <svg width="16" height="16" viewBox="0 0 16 16" fill="none" xmlns="http://www.w3.org/2000/svg">
            <path d="M7.99992 9.33333C9.47059 9.33333 10.6666 8.13733 10.6666 6.66667C10.6666 5.196 9.47059 4 7.99992 4C6.52925 4 5.33325 5.196 5.33325 6.66667C5.33325 8.13733 6.52925 9.33333 7.99992 9.33333ZM7.99992 5.33333C8.73525 5.33333 9.33325 5.93133 9.33325 6.66667C9.33325 7.402 8.73525 8 7.99992 8C7.26459 8 6.66659 7.402 6.66659 6.66667C6.66659 5.93133 7.26459 5.33333 7.99992 5.33333Z" fill="#0C73FE"/>
            <path d="M7.61323 14.5428C7.72606 14.6234 7.86125 14.6667 7.9999 14.6667C8.13854 14.6667 8.27373 14.6234 8.38656 14.5428C8.58923 14.3995 13.3526 10.9602 13.3332 6.66683C13.3332 3.72616 10.9406 1.3335 7.9999 1.3335C5.05923 1.3335 2.66656 3.72616 2.66656 6.6635C2.64723 10.9602 7.41056 14.3995 7.61323 14.5428ZM7.9999 2.66683C10.2059 2.66683 11.9999 4.46083 11.9999 6.67016C12.0139 9.62883 9.07456 12.2855 7.9999 13.1568C6.9259 12.2848 3.9859 9.6275 3.9999 6.66683C3.9999 4.46083 5.7939 2.66683 7.9999 2.66683Z" fill="#0C73FE"/>
        </svg>
    </symbol>
</svg>