<svg xmlns="http://www.w3.org/2000/svg" style="display name;">
    <symbol id="mail">
        <svg width="20" height="20" viewBox="0 0 20 20" fill="none" xmlns="http://www.w3.org/2000/svg">
            <path fill-rule="evenodd" clip-rule="evenodd" d="M3 3.5H17C17.6497 3.5 18.203 3.91311 18.4114 4.49099L11.2481 9.26656C10.4923 9.77041 9.5077 9.77041 8.75192 9.26656L1.58857 4.49099C1.79701 3.91311 2.35026 3.5 3 3.5ZM1.5 6.23472V15C1.5 15.8284 2.17157 16.5 3 16.5H17C17.8284 16.5 18.5 15.8284 18.5 15V6.23472L12.0801 10.5146C10.8205 11.3544 9.1795 11.3544 7.91987 10.5146L1.5 6.23472ZM0 5C0 3.34315 1.34315 2 3 2H17C18.6569 2 20 3.34315 20 5V15C20 16.6569 18.6569 18 17 18H3C1.34315 18 0 16.6569 0 15V5Z" fill="#000B26" fill-opacity="0.32"/>
        </svg>
    </symbol>

    <symbol id="call">
        <svg width="20" height="20" viewBox="0 0 20 20" fill="none" xmlns="http://www.w3.org/2000/svg">
            <path fill-rule="evenodd" clip-rule="evenodd" d="M4.5325 1.61307C4.21421 1.83674 3.73913 2.23444 3.16024 2.91438C2.48981 3.70184 2.08498 4.63876 2.10421 5.58059C2.14871 7.76028 3.15893 10.8115 6.17459 13.8272C9.26116 16.9138 12.3229 17.9083 14.4923 17.9154C15.3875 17.9183 16.2749 17.529 17.0295 16.8935C17.7348 16.2994 18.15 15.8033 18.3836 15.471C18.3777 15.4582 18.3641 15.4364 18.3347 15.4129L15.0179 12.7594C14.9184 12.6798 14.775 12.6878 14.685 12.7779L14.052 13.4108C13.1895 14.2733 11.803 14.5045 10.7311 13.7711C8.89575 12.5154 7.42306 11.0092 6.22991 9.26966C5.49172 8.1934 5.72445 6.79816 6.59617 5.93396L7.22085 5.31467C7.31161 5.2247 7.3199 5.08075 7.24006 4.98096L4.57993 1.6558C4.56428 1.63624 4.54884 1.6234 4.53671 1.61564C4.53523 1.6147 4.53383 1.61384 4.5325 1.61307ZM2.01811 1.94199C2.68646 1.15697 3.264 0.667714 3.6962 0.367538C4.43833 -0.147887 5.30361 0.15923 5.75124 0.718759L8.41136 4.04391C8.97022 4.74248 8.91222 5.75008 8.2769 6.37992L7.65223 6.9992C7.23923 7.40864 7.18185 8.00562 7.4669 8.42122C8.55917 10.0137 9.90134 11.3859 11.5781 12.5331C11.9903 12.8151 12.5824 12.7591 12.9913 12.3501L13.6243 11.7172C14.2548 11.0867 15.2586 11.0311 15.9549 11.5881L19.2718 14.2416C19.8409 14.6969 20.1415 15.5735 19.622 16.3176C19.3114 16.7624 18.8047 17.3594 17.9958 18.0407C17.0433 18.8429 15.8239 19.4198 14.4874 19.4154C11.8678 19.4068 8.43986 18.2138 5.11393 14.8879C1.85533 11.6293 0.657769 8.21959 0.604523 5.61121C0.576034 4.21564 1.17298 2.93464 2.01811 1.94199Z" fill="#000B26" fill-opacity="0.32"/>
        </svg>
    </symbol>

    <symbol id="map">
        <svg width="16" height="16" viewBox="0 0 16 16" fill="none" xmlns="http://www.w3.org/2000/svg">
            <path d="M7.99992 9.33333C9.47059 9.33333 10.6666 8.13733 10.6666 6.66667C10.6666 5.196 9.47059 4 7.99992 4C6.52925 4 5.33325 5.196 5.33325 6.66667C5.33325 8.13733 6.52925 9.33333 7.99992 9.33333ZM7.99992 5.33333C8.73525 5.33333 9.33325 5.93133 9.33325 6.66667C9.33325 7.402 8.73525 8 7.99992 8C7.26459 8 6.66659 7.402 6.66659 6.66667C6.66659 5.93133 7.26459 5.33333 7.99992 5.33333Z" fill="#0C73FE"/>
            <path d="M7.61323 14.5428C7.72606 14.6234 7.86125 14.6667 7.9999 14.6667C8.13854 14.6667 8.27373 14.6234 8.38656 14.5428C8.58923 14.3995 13.3526 10.9602 13.3332 6.66683C13.3332 3.72616 10.9406 1.3335 7.9999 1.3335C5.05923 1.3335 2.66656 3.72616 2.66656 6.6635C2.64723 10.9602 7.41056 14.3995 7.61323 14.5428ZM7.9999 2.66683C10.2059 2.66683 11.9999 4.46083 11.9999 6.67016C12.0139 9.62883 9.07456 12.2855 7.9999 13.1568C6.9259 12.2848 3.9859 9.6275 3.9999 6.66683C3.9999 4.46083 5.7939 2.66683 7.9999 2.66683Z" fill="#0C73FE"/>
        </svg>
    </symbol>

    <symbol id="stars">
        <svg width="171" height="25" viewBox="0 0 171 25" fill="none" xmlns="http://www.w3.org/2000/svg">
            <path d="M13 0L16.1329 8.35379L25.3637 8.63729L18.0691 14.0837L20.6412 22.6127L13 17.625L5.35879 22.6127L7.93087 14.0837L0.636266 8.63729L9.8671 8.35379L13 0Z" fill="#FFC100"/>
            <path d="M49 0L52.1329 8.35379L61.3637 8.63729L54.0691 14.0837L56.6412 22.6127L49 17.625L41.3588 22.6127L43.9309 14.0837L36.6363 8.63729L45.8671 8.35379L49 0Z" fill="#FFC100"/>
            <path d="M85.5 0L88.7534 8.35379L98.3393 8.63729L90.7641 14.0837L93.4351 22.6127L85.5 17.625L77.5649 22.6127L80.2359 14.0837L72.6607 8.63729L82.2466 8.35379L85.5 0Z" fill="#FFC100"/>
            <path d="M122 0L125.133 8.35379L134.364 8.63729L127.069 14.0837L129.641 22.6127L122 17.625L114.359 22.6127L116.931 14.0837L109.636 8.63729L118.867 8.35379L122 0Z" fill="#C4C4C4"/>
            <path d="M158 0L161.133 8.35379L170.364 8.63729L163.069 14.0837L165.641 22.6127L158 17.625L150.359 22.6127L152.931 14.0837L145.636 8.63729L154.867 8.35379L158 0Z" fill="#C4C4C4"/>
        </svg>
    </symbol>

    <symbol id="calendar">
        <svg width="24" height="24" viewBox="0 0 24 24" fill="none" xmlns="http://www.w3.org/2000/svg">
            <path fill-rule="evenodd" clip-rule="evenodd" d="M17.5 20C18.163 20 18.7989 19.7366 19.2678 19.2678C19.7366 18.7989 20 18.163 20 17.5C20 16.837 19.7366 16.2011 19.2678 15.7322C18.7989 15.2634 18.163 15 17.5 15C16.837 15 16.2011 15.2634 15.7322 15.7322C15.2634 16.2011 15 16.837 15 17.5C15 18.163 15.2634 18.7989 15.7322 19.2678C16.2011 19.7366 16.837 20 17.5 20ZM17.5 21C18.4283 21 19.3185 20.6313 19.9749 19.9749C20.6313 19.3185 21 18.4283 21 17.5C21 16.5717 20.6313 15.6815 19.9749 15.0251C19.3185 14.3687 18.4283 14 17.5 14C16.5717 14 15.6815 14.3687 15.0251 15.0251C14.3687 15.6815 14 16.5717 14 17.5C14 18.4283 14.3687 19.3185 15.0251 19.9749C15.6815 20.6313 16.5717 21 17.5 21Z" fill="#0C73FE"/>
            <path fill-rule="evenodd" clip-rule="evenodd" d="M17.5 15.75C17.6326 15.75 17.7598 15.8027 17.8536 15.8964C17.9473 15.9902 18 16.1174 18 16.25V17.293L18.3535 17.6465C18.4446 17.7408 18.495 17.8671 18.4938 17.9982C18.4927 18.1293 18.4401 18.2547 18.3474 18.3474C18.2547 18.4401 18.1293 18.4927 17.9982 18.4938C17.8671 18.495 17.7408 18.4446 17.6465 18.3535L17 17.707V16.25C17 16.1174 17.0527 15.9902 17.1464 15.8964C17.2402 15.8027 17.3674 15.75 17.5 15.75ZM7 11.5H6V12.5H7V11.5ZM6 10.5C5.73478 10.5 5.48043 10.6054 5.29289 10.7929C5.10536 10.9804 5 11.2348 5 11.5V12.5C5 12.7652 5.10536 13.0196 5.29289 13.2071C5.48043 13.3946 5.73478 13.5 6 13.5H7C7.26522 13.5 7.51957 13.3946 7.70711 13.2071C7.89464 13.0196 8 12.7652 8 12.5V11.5C8 11.2348 7.89464 10.9804 7.70711 10.7929C7.51957 10.6054 7.26522 10.5 7 10.5H6ZM11 11.5H10V12.5H11V11.5ZM10 10.5C9.73478 10.5 9.48043 10.6054 9.29289 10.7929C9.10536 10.9804 9 11.2348 9 11.5V12.5C9 12.7652 9.10536 13.0196 9.29289 13.2071C9.48043 13.3946 9.73478 13.5 10 13.5H11C11.2652 13.5 11.5196 13.3946 11.7071 13.2071C11.8946 13.0196 12 12.7652 12 12.5V11.5C12 11.2348 11.8946 10.9804 11.7071 10.7929C11.5196 10.6054 11.2652 10.5 11 10.5H10ZM15 11.5H14V12.5H15V11.5ZM14 10.5C13.7348 10.5 13.4804 10.6054 13.2929 10.7929C13.1054 10.9804 13 11.2348 13 11.5V12.5C13 12.7652 13.1054 13.0196 13.2929 13.2071C13.4804 13.3946 13.7348 13.5 14 13.5H15C15.2652 13.5 15.5196 13.3946 15.7071 13.2071C15.8946 13.0196 16 12.7652 16 12.5V11.5C16 11.2348 15.8946 10.9804 15.7071 10.7929C15.5196 10.6054 15.2652 10.5 15 10.5H14ZM7 15.5H6V16.5H7V15.5ZM6 14.5C5.73478 14.5 5.48043 14.6054 5.29289 14.7929C5.10536 14.9804 5 15.2348 5 15.5V16.5C5 16.7652 5.10536 17.0196 5.29289 17.2071C5.48043 17.3946 5.73478 17.5 6 17.5H7C7.26522 17.5 7.51957 17.3946 7.70711 17.2071C7.89464 17.0196 8 16.7652 8 16.5V15.5C8 15.2348 7.89464 14.9804 7.70711 14.7929C7.51957 14.6054 7.26522 14.5 7 14.5H6ZM11 15.5H10V16.5H11V15.5ZM10 14.5C9.73478 14.5 9.48043 14.6054 9.29289 14.7929C9.10536 14.9804 9 15.2348 9 15.5V16.5C9 16.7652 9.10536 17.0196 9.29289 17.2071C9.48043 17.3946 9.73478 17.5 10 17.5H11C11.2652 17.5 11.5196 17.3946 11.7071 17.2071C11.8946 17.0196 12 16.7652 12 16.5V15.5C12 15.2348 11.8946 14.9804 11.7071 14.7929C11.5196 14.6054 11.2652 14.5 11 14.5H10Z" fill="#0C73FE"/>
            <path fill-rule="evenodd" clip-rule="evenodd" d="M4 6C4 5.86739 4.05268 5.74021 4.14645 5.64645C4.24021 5.55268 4.36739 5.5 4.5 5.5H7V4.5H4.5C4.10218 4.5 3.72064 4.65804 3.43934 4.93934C3.15804 5.22064 3 5.60218 3 6V18C3 18.3978 3.15804 18.7794 3.43934 19.0607C3.72064 19.342 4.10218 19.5 4.5 19.5H14.6275C14.4143 19.1946 14.2514 18.857 14.145 18.5H4.5C4.36739 18.5 4.24021 18.4473 4.14645 18.3536C4.05268 18.2598 4 18.1326 4 18V6ZM17 14.035C17.3316 13.9876 17.6684 13.9876 18 14.035V6C18 5.60218 17.842 5.22064 17.5607 4.93934C17.2794 4.65804 16.8978 4.5 16.5 4.5H15V5.5H16.5C16.6326 5.5 16.7598 5.55268 16.8536 5.64645C16.9473 5.74021 17 5.86739 17 6V14.035ZM8 5.5H13.2815V4.5H8V5.5Z" fill="#0C73FE"/>
            <path fill-rule="evenodd" clip-rule="evenodd" d="M18 9H4V8H18V9Z" fill="#0C73FE"/>
            <path d="M6 3.5C6 3.36739 6.05268 3.24021 6.14645 3.14645C6.24021 3.05268 6.36739 3 6.5 3C6.63261 3 6.75979 3.05268 6.85355 3.14645C6.94732 3.24021 7 3.36739 7 3.5V6C7 6.13261 6.94732 6.25979 6.85355 6.35355C6.75979 6.44732 6.63261 6.5 6.5 6.5C6.36739 6.5 6.24021 6.44732 6.14645 6.35355C6.05268 6.25979 6 6.13261 6 6V3.5ZM13 3.5C13 3.36739 13.0527 3.24021 13.1464 3.14645C13.2402 3.05268 13.3674 3 13.5 3C13.6326 3 13.7598 3.05268 13.8536 3.14645C13.9473 3.24021 14 3.36739 14 3.5V6C14 6.13261 13.9473 6.25979 13.8536 6.35355C13.7598 6.44732 13.6326 6.5 13.5 6.5C13.3674 6.5 13.2402 6.44732 13.1464 6.35355C13.0527 6.25979 13 6.13261 13 6V3.5Z" fill="#0C73FE"/>
        </svg>
    </symbol>

    <symbol id="close-btn">
        <svg width="20" height="20" viewBox="0 0 20 20" fill="none" xmlns="http://www.w3.org/2000/svg">
            <path fill-rule="evenodd" clip-rule="evenodd" d="M18.7071 2.70711C19.0976 2.31658 19.0976 1.68342 18.7071 1.29289C18.3166 0.902369 17.6834 0.902369 17.2929 1.29289L10 8.58579L2.70711 1.29289C2.31658 0.902369 1.68342 0.902369 1.29289 1.29289C0.902369 1.68342 0.902369 2.31658 1.29289 2.70711L8.58579 10L1.29289 17.2929C0.90237 17.6834 0.90237 18.3166 1.29289 18.7071C1.68342 19.0976 2.31658 19.0976 2.70711 18.7071L10 11.4142L17.2929 18.7071C17.6834 19.0976 18.3166 19.0976 18.7071 18.7071C19.0976 18.3166 19.0976 17.6834 18.7071 17.2929L11.4142 10L18.7071 2.70711Z" fill="#000B26" fill-opacity="0.72"/>
        </svg>
    </symbol>

    <symbol id="vk">
        <svg width="24" height="24" viewBox="0 0 24 24" fill="none" xmlns="http://www.w3.org/2000/svg">
            <path d="M15.683 0H8.31577C1.59277 0 -0.000976562 1.59375 -0.000976562 8.31675V15.684C-0.000976562 22.407 1.59277 24.0007 8.31577 24.0007H15.683C22.406 24.0007 23.9998 22.407 23.9998 15.684V8.31675C23.9998 1.59375 22.3903 0 15.683 0ZM19.3745 17.121H17.6323C16.9723 17.121 16.769 16.5975 15.5818 15.3945C14.5505 14.3947 14.0938 14.262 13.8395 14.262C13.4803 14.262 13.3783 14.3633 13.3783 14.856V16.4303C13.3783 16.8525 13.2455 17.106 12.128 17.106C10.28 17.106 8.22952 15.9885 6.79177 13.9065C4.62352 10.8555 4.03027 8.57025 4.03027 8.09775C4.03027 7.8435 4.13152 7.60575 4.61977 7.60575H6.36577C6.80752 7.60575 6.97552 7.809 7.14727 8.2815C8.01052 10.7738 9.44827 12.957 10.0415 12.957C10.2605 12.957 10.3618 12.8558 10.3618 12.297V9.723C10.295 8.53575 9.67027 8.43375 9.67027 8.01225C9.67027 7.809 9.83827 7.60575 10.1075 7.60575H12.8533C13.2245 7.60575 13.361 7.809 13.361 8.24625V11.7188C13.361 12.0938 13.529 12.2265 13.6303 12.2265C13.8493 12.2265 14.0368 12.0938 14.4425 11.6873C15.6965 10.281 16.595 8.11275 16.595 8.11275C16.712 7.8585 16.9153 7.62075 17.357 7.62075H19.103C19.6265 7.62075 19.7435 7.89 19.6265 8.265C19.4075 9.2805 17.2708 12.2963 17.2708 12.2963C17.087 12.6007 17.0165 12.7335 17.2708 13.0732C17.4583 13.3275 18.068 13.8548 18.4738 14.3273C19.22 15.1748 19.7938 15.8857 19.9468 16.3778C20.1185 16.866 19.865 17.1203 19.3723 17.1203L19.3745 17.121Z" fill="#0C73FE"/>
        </svg>
    </symbol>

    <symbol id="inst">
        <svg width="24" height="24" viewBox="0 0 24 24" fill="none" xmlns="http://www.w3.org/2000/svg">
            <path d="M11.9968 7.9983C9.79333 7.9983 7.99515 9.79651 7.99515 12C7.99515 14.2035 9.79333 16.0017 11.9968 16.0017C14.2002 16.0017 15.9984 14.2035 15.9984 12C15.9984 9.79651 14.2002 7.9983 11.9968 7.9983ZM23.9987 12C23.9987 10.3429 24.0137 8.70077 23.9206 7.04665C23.8275 5.12536 23.3893 3.4202 21.9843 2.01525C20.5764 0.607302 18.8743 0.172008 16.953 0.0789456C15.2959 -0.0141173 13.6539 0.000892936 11.9998 0.000892936C10.3427 0.000892936 8.70061 -0.0141173 7.04652 0.0789456C5.12526 0.172008 3.42014 0.610305 2.01522 2.01525C0.607291 3.42321 0.172005 5.12536 0.0789442 7.04665C-0.014117 8.70377 0.000892919 10.3459 0.000892919 12C0.000892919 13.6541 -0.014117 15.2992 0.0789442 16.9533C0.172005 18.8746 0.610293 20.5798 2.01522 21.9847C3.42314 23.3927 5.12526 23.828 7.04652 23.9211C8.70361 24.0141 10.3457 23.9991 11.9998 23.9991C13.6569 23.9991 15.2989 24.0141 16.953 23.9211C18.8743 23.828 20.5794 23.3897 21.9843 21.9847C23.3923 20.5768 23.8275 18.8746 23.9206 16.9533C24.0167 15.2992 23.9987 13.6571 23.9987 12ZM11.9968 18.1572C8.58954 18.1572 5.83973 15.4073 5.83973 12C5.83973 8.5927 8.58954 5.84284 11.9968 5.84284C15.404 5.84284 18.1538 8.5927 18.1538 12C18.1538 15.4073 15.404 18.1572 11.9968 18.1572ZM18.406 7.02864C17.6105 7.02864 16.968 6.38621 16.968 5.59067C16.968 4.79513 17.6105 4.1527 18.406 4.1527C19.2015 4.1527 19.8439 4.79513 19.8439 5.59067C19.8442 5.77957 19.8071 5.96667 19.735 6.14124C19.6628 6.31581 19.5569 6.47442 19.4233 6.608C19.2897 6.74157 19.1311 6.84748 18.9565 6.91967C18.782 6.99185 18.5949 7.02888 18.406 7.02864Z" fill="url(#paint0_linear_27_306)"/>
            <defs>
                <linearGradient id="paint0_linear_27_306" x1="12" y1="0" x2="12" y2="24" gradientUnits="userSpaceOnUse">
                    <stop stop-color="#3E3AE0"/>
                    <stop offset="0.307292" stop-color="#B21A7A"/>
                    <stop offset="0.598958" stop-color="#EE5132"/>
                    <stop offset="1" stop-color="#F7D975"/>
                </linearGradient>
            </defs>
        </svg>
    </symbol>


</svg>