<svg width="167" height="108" viewBox="0 0 167 108" fill="none" xmlns="http://www.w3.org/2000/svg">
    <path d="M12.4756 92.4C4.77559 82.5 0.925586 69.7 0.925586 54C0.925586 38.3 4.77559 25.55 12.4756 15.75C20.2756 5.85 31.9256 0.899999 47.4256 0.899999C62.9256 0.899999 74.5256 5.85 82.2256 15.75C90.0256 25.55 93.9256 38.3 93.9256 54C93.9256 69.7 90.0256 82.5 82.2256 92.4C74.5256 102.2 62.9256 107.1 47.4256 107.1C31.9256 107.1 20.2756 102.2 12.4756 92.4ZM47.4256 87.3C63.4256 87.3 71.4256 76.2 71.4256 54C71.4256 31.8 63.4256 20.7 47.4256 20.7C31.4256 20.7 23.4256 31.8 23.4256 54C23.4256 76.2 31.4256 87.3 47.4256 87.3ZM132.784 3H149.134V85.65H166.234V105H108.034V85.65H127.234V25.5L108.034 32.7V12.45L132.784 3Z" fill="#19063D" fill-opacity="0.1"/>
</svg>
