<svg width="183" height="108" viewBox="0 0 183 108" fill="none" xmlns="http://www.w3.org/2000/svg">
    <path d="M12.3682 92.4C4.66816 82.5 0.818164 69.7 0.818164 54C0.818164 38.3 4.66816 25.55 12.3682 15.75C20.1682 5.85 31.8182 0.899999 47.3182 0.899999C62.8182 0.899999 74.4182 5.85 82.1182 15.75C89.9182 25.55 93.8182 38.3 93.8182 54C93.8182 69.7 89.9182 82.5 82.1182 92.4C74.4182 102.2 62.8182 107.1 47.3182 107.1C31.8182 107.1 20.1682 102.2 12.3682 92.4ZM47.3182 87.3C63.3182 87.3 71.3182 76.2 71.3182 54C71.3182 31.8 63.3182 20.7 47.3182 20.7C31.3182 20.7 23.3182 31.8 23.3182 54C23.3182 76.2 31.3182 87.3 47.3182 87.3ZM109.726 11.7C119.826 4.5 131.526 0.899999 144.826 0.899999C155.726 0.899999 164.626 3.45 171.526 8.55C178.526 13.65 182.026 21.15 182.026 31.05C182.026 38.75 179.526 45.35 174.526 50.85C169.626 56.25 162.926 61.45 154.426 66.45C144.426 72.35 138.276 76.35 135.976 78.45C133.276 81.05 131.876 83.5 131.776 85.8L182.776 85.65V105H106.276V94.95C106.276 89.45 107.076 84.5 108.676 80.1C110.376 75.7 113.076 71.75 116.776 68.25C120.576 64.75 123.726 62.15 126.226 60.45C128.726 58.65 132.526 56.25 137.626 53.25C137.926 53.05 138.176 52.9 138.376 52.8C138.576 52.7 138.826 52.55 139.126 52.35C139.426 52.15 139.676 52 139.876 51.9C140.476 51.5 141.726 50.8 143.626 49.8C145.626 48.7 146.926 47.95 147.526 47.55C148.126 47.15 149.176 46.5 150.676 45.6C152.176 44.6 153.226 43.85 153.826 43.35C154.426 42.75 155.176 41.95 156.076 40.95C157.076 39.95 157.776 39.05 158.176 38.25C158.576 37.45 158.926 36.5 159.226 35.4C159.526 34.3 159.676 33.15 159.676 31.95C159.676 28.25 158.176 25.45 155.176 23.55C152.176 21.55 148.026 20.55 142.726 20.55C131.326 20.55 120.326 24.6 109.726 32.7V11.7Z" fill="#19063D" fill-opacity="0.1"/>
</svg>
