<svg width="25" height="25" viewBox="0 0 25 25" fill="none" xmlns="http://www.w3.org/2000/svg">
<path fill-rule="evenodd" clip-rule="evenodd" d="M23.4375 12.5C23.4375 12.8551 23.2935 13.1957 23.0371 13.4468C22.7807 13.698 22.433 13.839 22.0705 13.839H6.232L12.102 19.5862C12.2291 19.7107 12.33 19.8585 12.3988 20.0212C12.4675 20.1839 12.5029 20.3582 12.5029 20.5343C12.5029 20.7103 12.4675 20.8847 12.3988 21.0473C12.33 21.21 12.2291 21.3578 12.102 21.4823C11.9749 21.6068 11.8241 21.7056 11.658 21.7729C11.4919 21.8403 11.3139 21.875 11.1342 21.875C10.9544 21.875 10.7765 21.8403 10.6104 21.7729C10.4443 21.7056 10.2934 21.6068 10.1663 21.4823L1.96412 13.448C1.83681 13.3237 1.73581 13.1759 1.66689 13.0132C1.59797 12.8505 1.5625 12.6761 1.5625 12.5C1.5625 12.3239 1.59797 12.1495 1.66689 11.9868C1.73581 11.8241 1.83681 11.6763 1.96412 11.552L10.1663 3.51769C10.423 3.26626 10.7712 3.125 11.1342 3.125C11.4972 3.125 11.8454 3.26626 12.102 3.51769C12.3587 3.76913 12.5029 4.11015 12.5029 4.46574C12.5029 4.82132 12.3587 5.16234 12.102 5.41378L6.232 11.161H22.0705C22.433 11.161 22.7807 11.302 23.0371 11.5532C23.2935 11.8043 23.4375 12.1449 23.4375 12.5Z" fill="black"/>
</svg>
