<svg width="25" height="25" viewBox="0 0 25 25" fill="none" xmlns="http://www.w3.org/2000/svg">
<path fill-rule="evenodd" clip-rule="evenodd" d="M1.5625 12.5C1.5625 12.1449 1.70653 11.8043 1.96289 11.5532C2.21926 11.302 2.56697 11.161 2.92953 11.161L18.768 11.161L12.898 5.41378C12.7709 5.28928 12.67 5.14148 12.6012 4.97881C12.5325 4.81615 12.4971 4.6418 12.4971 4.46573C12.4971 4.28967 12.5325 4.11532 12.6012 3.95266C12.67 3.78999 12.7709 3.64219 12.898 3.51769C13.0251 3.39319 13.1759 3.29443 13.342 3.22706C13.5081 3.15968 13.6861 3.125 13.8658 3.125C14.0456 3.125 14.2235 3.15968 14.3896 3.22706C14.5557 3.29443 14.7066 3.39319 14.8337 3.51769L23.0359 11.552C23.1632 11.6763 23.2642 11.8241 23.3331 11.9868C23.402 12.1495 23.4375 12.3239 23.4375 12.5C23.4375 12.6761 23.402 12.8505 23.3331 13.0132C23.2642 13.1759 23.1632 13.3237 23.0359 13.448L14.8337 21.4823C14.577 21.7337 14.2288 21.875 13.8658 21.875C13.5028 21.875 13.1546 21.7337 12.898 21.4823C12.6413 21.2309 12.4971 20.8898 12.4971 20.5343C12.4971 20.1787 12.6413 19.8377 12.898 19.5862L18.768 13.839L2.92953 13.839C2.56697 13.839 2.21926 13.698 1.96289 13.4468C1.70653 13.1957 1.5625 12.8551 1.5625 12.5Z" fill="black"/>
</svg>
