<svg width="12" height="12" viewBox="0 0 12 12" fill="none" xmlns="http://www.w3.org/2000/svg">
<path fill-rule="evenodd" clip-rule="evenodd" d="M6 0.75C6.17047 0.75 6.33395 0.819133 6.45449 0.94219C6.57502 1.06525 6.64274 1.23215 6.64274 1.40618V9.00864L9.40139 6.19102C9.46115 6.13001 9.53209 6.08161 9.61017 6.0486C9.68825 6.01558 9.77193 5.99859 9.85645 5.99859C9.94096 5.99859 10.0246 6.01558 10.1027 6.0486C10.1808 6.08161 10.2517 6.13001 10.3115 6.19102C10.3713 6.25203 10.4187 6.32445 10.451 6.40416C10.4834 6.48388 10.5 6.56931 10.5 6.65559C10.5 6.74187 10.4834 6.8273 10.451 6.90702C10.4187 6.98673 10.3713 7.05915 10.3115 7.12016L6.45506 11.0572C6.39536 11.1183 6.32443 11.1668 6.24634 11.1999C6.16825 11.233 6.08454 11.25 6 11.25C5.91546 11.25 5.83175 11.233 5.75366 11.1999C5.67557 11.1668 5.60464 11.1183 5.54494 11.0572L1.68849 7.12016C1.5678 6.99695 1.5 6.82984 1.5 6.65559C1.5 6.48134 1.5678 6.31423 1.68849 6.19102C1.80918 6.0678 1.97287 5.99859 2.14355 5.99859C2.31423 5.99859 2.47792 6.0678 2.59861 6.19102L5.35726 9.00864V1.40618C5.35726 1.23215 5.42498 1.06525 5.54551 0.94219C5.66605 0.819133 5.82953 0.75 6 0.75Z" fill="black"/>
</svg>
