<svg width="16" height="16" viewBox="0 0 16 16" fill="none" xmlns="http://www.w3.org/2000/svg">
<path d="M7.99992 9.33333C9.47059 9.33333 10.6666 8.13733 10.6666 6.66667C10.6666 5.196 9.47059 4 7.99992 4C6.52925 4 5.33325 5.196 5.33325 6.66667C5.33325 8.13733 6.52925 9.33333 7.99992 9.33333ZM7.99992 5.33333C8.73525 5.33333 9.33325 5.93133 9.33325 6.66667C9.33325 7.402 8.73525 8 7.99992 8C7.26459 8 6.66659 7.402 6.66659 6.66667C6.66659 5.93133 7.26459 5.33333 7.99992 5.33333Z" fill="#0C73FE"/>
<path d="M7.61323 14.5428C7.72606 14.6234 7.86125 14.6667 7.9999 14.6667C8.13854 14.6667 8.27373 14.6234 8.38656 14.5428C8.58923 14.3995 13.3526 10.9602 13.3332 6.66683C13.3332 3.72616 10.9406 1.3335 7.9999 1.3335C5.05923 1.3335 2.66656 3.72616 2.66656 6.6635C2.64723 10.9602 7.41056 14.3995 7.61323 14.5428ZM7.9999 2.66683C10.2059 2.66683 11.9999 4.46083 11.9999 6.67016C12.0139 9.62883 9.07456 12.2855 7.9999 13.1568C6.9259 12.2848 3.9859 9.6275 3.9999 6.66683C3.9999 4.46083 5.7939 2.66683 7.9999 2.66683Z" fill="#0C73FE"/>
</svg>
