<svg width="20" height="20" viewBox="0 0 20 20" fill="none" xmlns="http://www.w3.org/2000/svg">
<path fill-rule="evenodd" clip-rule="evenodd" d="M0.25 4C0.25 3.58579 0.585786 3.25 1 3.25H19C19.4142 3.25 19.75 3.58579 19.75 4C19.75 4.41421 19.4142 4.75 19 4.75H1C0.585786 4.75 0.25 4.41421 0.25 4ZM0.25 16C0.25 15.5858 0.585786 15.25 1 15.25L19 15.25C19.4142 15.25 19.75 15.5858 19.75 16C19.75 16.4142 19.4142 16.75 19 16.75L1 16.75C0.585786 16.75 0.25 16.4142 0.25 16ZM1 9.25C0.585786 9.25 0.25 9.58579 0.25 10C0.25 10.4142 0.585786 10.75 1 10.75L19 10.75C19.4142 10.75 19.75 10.4142 19.75 10C19.75 9.58579 19.4142 9.25 19 9.25L1 9.25Z" fill="#000B26" fill-opacity="0.72"/>
</svg>
