<svg width="90" height="90" viewBox="0 0 90 90" fill="none" xmlns="http://www.w3.org/2000/svg">
    <path d="M45 0L45.0087 44.9557L62.2208 3.42541L45.025 44.9626L76.8197 13.1802L45.0374 44.975L86.5746 27.7792L45.0443 44.9913L90 45L45.0443 45.0087L86.5746 62.2208L45.0374 45.025L76.8197 76.8197L45.025 45.0374L62.2208 86.5746L45.0087 45.0443L45 90L44.9913 45.0443L27.7792 86.5746L44.975 45.0374L13.1802 76.8197L44.9626 45.025L3.42541 62.2208L44.9557 45.0087L0 45L44.9557 44.9913L3.42541 27.7792L44.9626 44.975L13.1802 13.1802L44.975 44.9626L27.7792 3.42541L44.9913 44.9557L45 0Z" fill="#F0C3D2" stroke="#713EDD"/>
</svg>
