<svg width="397" height="269" viewBox="0 0 397 269" fill="none" xmlns="http://www.w3.org/2000/svg">
<g clip-path="url(#clip0_206_343)">
<path d="M0 111.003C0 78.0934 26.6241 0 59.4665 0C92.309 0 118.933 78.0934 118.933 111.003C118.929 126.804 112.661 141.956 101.51 153.128C90.358 164.299 75.2351 170.575 59.4665 170.575C43.698 170.575 28.575 164.299 17.4234 153.128C6.27172 141.956 0.00452169 126.804 0 111.003Z" fill="#713EDD"/>
<path d="M59.4665 255.975C59.3368 255.975 59.2125 255.924 59.1208 255.832C59.0291 255.74 58.9775 255.615 58.9775 255.485V50.0437C58.9775 49.9137 59.0291 49.7891 59.1208 49.6972C59.2125 49.6053 59.3368 49.5537 59.4665 49.5537C59.5962 49.5537 59.7206 49.6053 59.8123 49.6972C59.904 49.7891 59.9555 49.9137 59.9555 50.0437V255.485C59.9555 255.615 59.904 255.74 59.8123 255.832C59.7206 255.924 59.5962 255.975 59.4665 255.975Z" fill="#3F3D56"/>
<path d="M59.4666 89.7057C59.4023 89.7058 59.3387 89.6931 59.2794 89.6685C59.2201 89.6439 59.1662 89.6077 59.1208 89.5621L35.5841 65.9772C35.5381 65.9318 35.5016 65.8778 35.4767 65.8182C35.4517 65.7586 35.4387 65.6947 35.4385 65.63C35.4383 65.5654 35.4508 65.5014 35.4754 65.4416C35.5 65.3819 35.5361 65.3276 35.5817 65.2819C35.6273 65.2362 35.6815 65.2 35.7412 65.1754C35.8008 65.1508 35.8647 65.1382 35.9292 65.1384C35.9937 65.1387 36.0575 65.1517 36.1169 65.1767C36.1764 65.2018 36.2303 65.2383 36.2756 65.2844L59.8124 88.8693C59.8807 88.9378 59.9273 89.0251 59.9462 89.1202C59.965 89.2152 59.9553 89.3137 59.9183 89.4032C59.8813 89.4928 59.8186 89.5693 59.7382 89.6231C59.6578 89.6769 59.5633 89.7057 59.4666 89.7057V89.7057Z" fill="#3F3D56"/>
<path d="M59.4665 130.536C59.3698 130.536 59.2752 130.507 59.1948 130.453C59.1144 130.399 59.0518 130.323 59.0148 130.233C58.9777 130.144 58.9681 130.045 58.9869 129.95C59.0058 129.855 59.0523 129.768 59.1207 129.699L98.5373 90.2019C98.5826 90.1559 98.6365 90.1194 98.6959 90.0944C98.7554 90.0693 98.8192 90.0564 98.8836 90.0562C98.9481 90.0559 99.012 90.0685 99.0716 90.0931C99.1312 90.1178 99.1854 90.1539 99.231 90.1996C99.2766 90.2453 99.3127 90.2996 99.3373 90.3593C99.3619 90.419 99.3744 90.483 99.3742 90.5476C99.374 90.6123 99.3611 90.6762 99.3361 90.7358C99.3112 90.7953 99.2747 90.8494 99.2288 90.8948L59.8123 130.392C59.7669 130.438 59.713 130.474 59.6537 130.499C59.5943 130.523 59.5307 130.536 59.4665 130.536Z" fill="#3F3D56"/>
<path d="M24.0905 268.811C24.1755 268.877 24.2649 268.936 24.3508 269H97.2541C98.6826 263.2 99.1871 257.394 97.0533 252.353C94.0132 245.168 85.0156 240.683 77.8624 243.769C76.1676 244.519 74.6913 245.69 73.5723 247.17C70.7769 242.156 65.7624 238.375 59.9744 238.379C52.723 238.385 46.6939 244.327 44.7264 251.191C41.558 245.832 35.2998 242.087 29.183 243.698C18.952 246.392 15.7205 262.329 24.0905 268.811Z" fill="#F2F2F2"/>
<path d="M311.479 155.467C311.479 131.818 330.624 75.7021 354.24 75.7021C377.856 75.7021 397 131.818 397 155.467C396.992 166.826 392.484 177.717 384.466 185.746C376.447 193.775 365.576 198.286 354.24 198.286C342.904 198.286 332.032 193.775 324.014 185.746C315.996 177.717 311.487 166.826 311.479 155.467Z" fill="#E6E6E6"/>
<path d="M354.24 259.641C354.194 259.641 354.148 259.632 354.105 259.614C354.063 259.596 354.024 259.57 353.991 259.538C353.959 259.505 353.933 259.466 353.915 259.423C353.897 259.381 353.888 259.335 353.888 259.289V111.663C353.889 111.569 353.926 111.48 353.992 111.414C354.058 111.348 354.147 111.312 354.24 111.312C354.333 111.312 354.422 111.348 354.488 111.414C354.554 111.48 354.591 111.569 354.591 111.663V259.289C354.591 259.335 354.582 259.381 354.565 259.423C354.547 259.466 354.521 259.505 354.488 259.538C354.456 259.57 354.417 259.596 354.374 259.614C354.332 259.632 354.286 259.641 354.24 259.641Z" fill="#3F3D56"/>
<path d="M354.24 140.163C354.194 140.163 354.148 140.154 354.105 140.136C354.063 140.119 354.024 140.093 353.991 140.06L337.067 123.112C337.001 123.046 336.964 122.956 336.964 122.863C336.964 122.77 337.001 122.68 337.067 122.614C337.133 122.548 337.222 122.511 337.316 122.511C337.409 122.511 337.498 122.548 337.564 122.614L354.489 139.562C354.538 139.611 354.571 139.674 354.585 139.742C354.598 139.811 354.591 139.881 354.565 139.946C354.538 140.01 354.493 140.065 354.435 140.104C354.377 140.142 354.309 140.163 354.24 140.163Z" fill="#3F3D56"/>
<path d="M354.24 169.502C354.17 169.503 354.102 169.482 354.044 169.443C353.987 169.405 353.942 169.35 353.915 169.285C353.888 169.221 353.881 169.15 353.895 169.082C353.908 169.013 353.942 168.951 353.991 168.901L382.334 140.519C382.4 140.453 382.489 140.416 382.583 140.416C382.676 140.416 382.765 140.453 382.831 140.519C382.897 140.585 382.934 140.675 382.934 140.768C382.934 140.861 382.897 140.951 382.831 141.017L354.488 169.399C354.456 169.432 354.417 169.458 354.374 169.476C354.332 169.493 354.286 169.503 354.24 169.502Z" fill="#3F3D56"/>
<path d="M328.802 268.864C328.863 268.911 328.927 268.954 328.989 269H381.412C382.439 264.832 382.801 260.66 381.267 257.037C379.081 251.875 372.611 248.652 367.468 250.869C366.249 251.409 365.188 252.25 364.383 253.313C362.373 249.71 358.767 246.994 354.605 246.997C349.391 247 345.055 251.27 343.641 256.203C341.362 252.352 336.862 249.661 332.464 250.818C325.107 252.755 322.784 264.206 328.802 268.864Z" fill="#F2F2F2"/>
<path d="M206.596 169.381C210.204 176.534 206.435 186.612 198.555 188.875C196.338 189.511 193.827 189.445 191.875 188.103C190.264 186.996 189.101 185.038 189.254 183.044C189.549 179.208 194.424 177.782 197.528 179.021C201.731 180.697 203.613 185.638 204.201 189.786C204.919 194.857 203.932 200.096 201.955 204.781C197.996 214.16 190.161 221.468 182.394 227.741C174.424 234.167 165.689 239.579 156.39 243.851C155.222 244.388 154.046 244.907 152.862 245.407C152.695 245.507 152.574 245.668 152.525 245.856C152.475 246.044 152.502 246.244 152.599 246.413C152.7 246.577 152.861 246.697 153.048 246.746C153.235 246.795 153.433 246.77 153.602 246.677C163.831 242.338 173.439 236.657 182.174 229.782C190.629 223.133 199.161 215.285 203.379 205.151C205.481 200.099 206.427 194.519 205.568 189.081C204.844 184.504 202.572 179.439 197.989 177.63C194.373 176.204 189.333 177.707 188.048 181.643C187.342 183.807 188.073 186.147 189.471 187.858C190.236 188.76 191.188 189.485 192.26 189.982C193.333 190.479 194.5 190.736 195.682 190.736C200.397 190.834 204.712 187.802 207.081 183.867C209.312 180.172 209.991 175.742 208.969 171.546C208.706 170.54 208.335 169.566 207.863 168.639C207.437 167.795 206.171 168.538 206.596 169.381Z" fill="#CCCCCC"/>
<path d="M287.824 258.37L282.552 260.235L272.867 240.748L280.647 237.996L287.824 258.37Z" fill="#A0616A"/>
<path d="M278.255 260.057L288.422 256.462L290.681 262.876L274.114 268.735C273.817 267.893 273.689 267 273.736 266.108C273.784 265.216 274.006 264.343 274.391 263.537C274.776 262.731 275.315 262.009 275.978 261.412C276.641 260.815 277.415 260.355 278.255 260.057Z" fill="#2F2E41"/>
<path d="M230.584 263.528L224.994 263.528L222.335 241.922L230.585 241.922L230.584 263.528Z" fill="#A0616A"/>
<path d="M221 261.927H231.781V268.729H214.212C214.212 267.836 214.388 266.951 214.729 266.126C215.07 265.301 215.57 264.551 216.201 263.919C216.831 263.288 217.579 262.787 218.403 262.445C219.226 262.103 220.109 261.927 221 261.927Z" fill="#2F2E41"/>
<path d="M230.066 257.184C229.882 257.184 229.698 257.161 229.519 257.115L221.275 255.021C220.772 254.894 220.33 254.592 220.027 254.17C219.725 253.748 219.581 253.233 219.621 252.715L227.5 149.695L227.744 149.714L227.5 149.695C227.668 147.558 228.604 145.555 230.135 144.058C231.666 142.561 233.688 141.673 235.824 141.557L260.74 140.261L264.929 204.912L289.777 249.755C289.932 250.034 290.024 250.344 290.048 250.663C290.071 250.982 290.025 251.302 289.913 251.601C289.801 251.901 289.625 252.172 289.397 252.396C289.17 252.62 288.897 252.793 288.597 252.901L277.151 257.016C276.634 257.205 276.064 257.192 275.556 256.978C275.048 256.765 274.639 256.367 274.41 255.865L245.19 192.454C245.124 192.312 245.016 192.195 244.88 192.12C244.744 192.044 244.587 192.014 244.433 192.033C244.278 192.052 244.134 192.121 244.02 192.228C243.907 192.335 243.831 192.475 243.803 192.629L232.224 255.378C232.13 255.884 231.863 256.341 231.469 256.67C231.075 257 230.579 257.182 230.066 257.184Z" fill="#2F2E41"/>
<path d="M202.727 165.71C202.992 165.093 203.389 164.542 203.89 164.095C204.391 163.649 204.983 163.318 205.625 163.125C206.267 162.933 206.944 162.884 207.607 162.982C208.27 163.08 208.904 163.323 209.463 163.693L218.145 157.815L222.997 162.23L210.62 170.359C209.938 171.259 208.949 171.878 207.842 172.097C206.735 172.316 205.586 172.12 204.613 171.547C203.64 170.974 202.911 170.064 202.563 168.988C202.215 167.912 202.274 166.746 202.727 165.71L202.727 165.71Z" fill="#A0616A"/>
<path d="M249.925 101.013C256.558 101.013 261.935 95.6255 261.935 88.979C261.935 82.3326 256.558 76.9446 249.925 76.9446C243.292 76.9446 237.915 82.3326 237.915 88.979C237.915 95.6255 243.292 101.013 249.925 101.013Z" fill="#A0616A"/>
<path d="M233.584 144.276C232.915 144.274 232.254 144.125 231.649 143.84C231.044 143.554 230.508 143.138 230.082 142.622C229.655 142.105 229.346 141.501 229.179 140.852C229.011 140.203 228.987 139.525 229.11 138.866L231.207 127.638C228.969 119.497 240.367 112.32 240.854 112.017L247.965 109.285L248.052 109.514L247.965 109.285C249.301 108.772 250.744 108.599 252.163 108.781C253.582 108.963 254.935 109.494 256.099 110.327C257.264 111.161 258.205 112.27 258.837 113.556C259.47 114.842 259.775 116.265 259.725 117.699L258.863 142.389L233.933 144.263C233.816 144.271 233.7 144.276 233.584 144.276Z" fill="#713EDD"/>
<path d="M243.988 221.264C238.513 221.199 233.048 220.762 227.632 219.954L227.402 219.918L227.426 219.687C227.857 215.469 238.011 116.321 240.208 109.332C240.776 107.526 242.542 106.107 245.457 105.113C254.62 101.992 264.912 106.621 268.888 115.651C270.349 118.983 271.068 122.593 270.997 126.232L269.149 213.516L268.954 213.553C268.903 213.563 263.784 214.565 257.027 218.941C254.277 220.722 249.177 221.264 243.988 221.264Z" fill="#3F3D56"/>
<path opacity="0.05098" d="M257.697 126.277C264.05 137.084 260.845 142.839 254.835 153.868C251.501 159.985 241.216 167.551 236.399 162.688C231.581 157.825 235.389 151.213 237.481 144.498C239.573 137.784 244.073 132.255 248.77 127.26C252.119 123.699 259.034 126.622 257.697 126.277Z" fill="black"/>
<path d="M216.388 168.564C215.904 168.563 215.433 168.403 215.049 168.107C214.664 167.811 214.388 167.397 214.263 166.928L212.738 161.215C212.624 160.781 212.643 160.324 212.794 159.902C212.945 159.48 213.22 159.114 213.583 158.852L238.27 141.153L241.597 122.218C241.821 120.939 242.31 119.72 243.03 118.64C243.75 117.56 244.687 116.642 245.781 115.945C246.875 115.248 248.102 114.786 249.383 114.59C250.665 114.394 251.973 114.467 253.224 114.805C254.476 115.143 255.644 115.738 256.653 116.553C257.663 117.368 258.492 118.385 259.088 119.539C259.684 120.692 260.034 121.958 260.115 123.254C260.196 124.551 260.007 125.85 259.56 127.069L252.529 146.239C251.155 150.004 248.38 153.09 244.785 154.85L217.358 168.338C217.056 168.486 216.724 168.564 216.388 168.564Z" fill="#3F3D56"/>
<path d="M244.854 84.4104C244.276 85.5909 243.288 86.5192 242.076 87.0206C240.863 87.522 239.509 87.5618 238.269 87.1326C237.029 86.7034 235.988 85.8348 235.343 84.6902C234.698 83.5457 234.492 82.2043 234.765 80.9184C235.275 78.5182 236.505 76.3317 238.291 74.6526C240.077 72.9736 242.333 71.8825 244.756 71.5258C247.179 71.1692 249.653 71.5641 251.845 72.6575C254.038 73.751 255.844 75.4905 257.021 77.6426C260.821 74.9793 266.787 76.3245 269.083 80.3624C271.379 84.4004 269.492 90.2292 265.268 92.1477C263.166 93.1023 263.322 96.7884 265.498 97.5608C266.224 97.8186 266.852 98.2966 267.295 98.9283C267.738 99.5601 267.974 100.314 267.97 101.086C267.965 101.858 267.722 102.61 267.272 103.237C266.822 103.864 266.189 104.335 265.46 104.585C262.723 105.524 259.933 106.472 257.041 106.545C254.149 106.619 251.085 105.681 249.26 103.432C247.435 101.183 247.308 97.4914 249.461 95.5553C250.553 94.5257 251.28 93.1673 251.533 91.6861C251.785 90.2049 251.548 88.6816 250.859 87.3473C249.422 84.721 245.578 82.9281 244.854 84.4104Z" fill="#2F2E41"/>
<path d="M167.289 266.389C166.73 266.388 166.181 266.239 165.697 265.958C165.214 265.677 164.813 265.272 164.535 264.786C164.257 264.3 164.113 263.748 164.116 263.188C164.119 262.628 164.269 262.078 164.552 261.595V261.595L169 253.984L174.485 257.204L170.037 264.814C169.756 265.294 169.355 265.692 168.872 265.968C168.39 266.245 167.844 266.389 167.289 266.389Z" fill="#713EDD"/>
<path d="M184.745 248.995C186.906 248.995 188.657 247.24 188.657 245.075C188.657 242.91 186.906 241.156 184.745 241.156C182.585 241.156 180.833 242.91 180.833 245.075C180.833 247.24 182.585 248.995 184.745 248.995Z" fill="#713EDD"/>
<path d="M150.078 266.389C149.519 266.388 148.969 266.239 148.486 265.958C148.002 265.677 147.601 265.272 147.324 264.786C147.046 264.3 146.901 263.748 146.904 263.188C146.907 262.628 147.058 262.078 147.341 261.595L151.789 253.984L157.274 257.204L152.826 264.814C152.545 265.294 152.143 265.692 151.661 265.968C151.179 266.244 150.633 266.389 150.078 266.389Z" fill="#713EDD"/>
<path d="M175.69 261.302H155.979C153.297 261.299 150.725 260.23 148.828 258.329C146.932 256.429 145.865 253.852 145.862 251.164V248.163C145.863 247.23 146.233 246.335 146.892 245.675C147.551 245.015 148.444 244.644 149.375 244.643H175.69C177.894 244.643 180.008 245.52 181.567 247.082C183.126 248.644 184.002 250.763 184.002 252.972C184.002 255.181 183.126 257.3 181.567 258.862C180.008 260.424 177.894 261.302 175.69 261.302Z" fill="#3F3D56"/>
<path d="M174.756 268.98C173.913 268.979 173.105 268.644 172.509 268.046C171.913 267.449 171.578 266.64 171.577 265.795V256.976H177.934V265.795C177.933 266.64 177.598 267.449 177.002 268.046C176.406 268.644 175.598 268.979 174.756 268.98Z" fill="#3F3D56"/>
<path d="M156.31 268.98C155.467 268.979 154.659 268.644 154.063 268.046C153.467 267.449 153.132 266.64 153.131 265.795V256.976H159.488V265.795C159.487 266.64 159.152 267.449 158.556 268.046C157.96 268.644 157.152 268.979 156.31 268.98Z" fill="#3F3D56"/>
<path d="M151.909 232.703H144.085V222.413C144.085 221.373 144.498 220.376 145.231 219.641C145.965 218.906 146.96 218.493 147.997 218.493C149.035 218.493 150.03 218.906 150.763 219.641C151.497 220.376 151.909 221.373 151.909 222.413V232.703Z" fill="#713EDD"/>
<path d="M151.289 247.28H138.349C137.601 247.279 136.884 246.981 136.355 246.451C135.827 245.922 135.529 245.203 135.528 244.454V237.662C135.531 235.276 136.478 232.988 138.162 231.3C139.846 229.613 142.13 228.664 144.511 228.661H146.575C148.573 228.663 150.488 229.459 151.9 230.875C153.313 232.29 154.107 234.209 154.11 236.21V244.454C154.109 245.203 153.811 245.922 153.282 246.451C152.754 246.981 152.037 247.279 151.289 247.28Z" fill="#3F3D56"/>
<path d="M151.909 232.703H146.53V221.188C146.53 220.473 146.814 219.788 147.318 219.282C147.822 218.777 148.506 218.493 149.22 218.493C149.933 218.493 150.617 218.777 151.121 219.282C151.626 219.788 151.909 220.473 151.909 221.188V232.703Z" fill="#3F3D56"/>
<path d="M150.568 247.196H136.388C135.35 247.196 134.355 246.783 133.622 246.048C132.888 245.313 132.476 244.316 132.476 243.276C132.476 242.236 132.888 241.239 133.622 240.504C134.355 239.769 135.35 239.356 136.388 239.356H150.568V247.196Z" fill="#3F3D56"/>
<path d="M132.843 244.859C133.349 244.859 133.759 244.118 133.759 243.205C133.759 242.292 133.349 241.552 132.843 241.552C132.336 241.552 131.926 242.292 131.926 243.205C131.926 244.118 132.336 244.859 132.843 244.859Z" fill="#713EDD"/>
<path d="M308.25 269H121.949C121.82 269 121.695 268.948 121.604 268.856C121.512 268.765 121.46 268.64 121.46 268.51C121.46 268.38 121.512 268.255 121.604 268.164C121.695 268.072 121.82 268.02 121.949 268.02H308.25C308.38 268.02 308.504 268.072 308.596 268.164C308.688 268.255 308.739 268.38 308.739 268.51C308.739 268.64 308.688 268.765 308.596 268.856C308.504 268.948 308.38 269 308.25 269Z" fill="#3F3D56"/>
</g>
<defs>
<clipPath id="clip0_206_343">
<rect width="397" height="269" fill="white"/>
</clipPath>
</defs>
</svg>
