<svg width="199" height="19" viewBox="0 0 199 19" fill="none" xmlns="http://www.w3.org/2000/svg">
<path d="M1.944 5.376C2.184 3.904 2.936 2.784 4.2 2.016C5.48 1.248 6.96 0.863999 8.64 0.863999C10.752 0.863999 12.528 1.328 13.968 2.256L13.488 5.472C12.144 4.48 10.568 4 8.76 4.032C6.776 4.064 5.712 4.608 5.568 5.664C5.52 6.048 5.648 6.392 5.952 6.696C6.256 7 6.656 7.264 7.152 7.488C7.664 7.696 8.224 7.92 8.832 8.16C9.456 8.384 10.064 8.648 10.656 8.952C11.248 9.256 11.776 9.608 12.24 10.008C12.704 10.392 13.048 10.896 13.272 11.52C13.496 12.144 13.536 12.856 13.392 13.656C12.848 16.776 10.504 18.336 6.36 18.336C3.96 18.336 1.912 17.816 0.216 16.776L0.744 13.464C2.28 14.6 4.12 15.168 6.264 15.168C8.408 15.168 9.568 14.624 9.744 13.536C9.808 13.088 9.696 12.696 9.408 12.36C9.136 12.024 8.752 11.736 8.256 11.496C7.76 11.256 7.208 11.024 6.6 10.8C5.992 10.56 5.384 10.296 4.776 10.008C4.184 9.704 3.648 9.368 3.168 9C2.704 8.616 2.352 8.12 2.112 7.512C1.872 6.888 1.816 6.176 1.944 5.376ZM17.3895 1.2H20.7255L19.6935 7.584C20.8455 6.624 22.0615 6.144 23.3415 6.144C24.7815 6.144 25.8535 6.608 26.5575 7.536C27.2775 8.448 27.5335 9.592 27.3255 10.968L26.1975 18H22.8615L23.9415 11.208C24.0535 10.472 23.9495 9.928 23.6295 9.576C23.3255 9.208 22.8615 9.024 22.2375 9.024C21.1655 9.024 20.1575 9.544 19.2135 10.584L18.0615 18H14.7255L17.3895 1.2ZM29.1703 12C29.3143 11.008 29.6183 10.128 30.0823 9.36C30.5463 8.576 31.0903 7.96 31.7143 7.512C32.3543 7.064 33.0183 6.728 33.7063 6.504C34.4103 6.264 35.1143 6.144 35.8183 6.144C36.7143 6.144 37.5063 6.288 38.1943 6.576C38.8823 6.848 39.4183 7.224 39.8023 7.704C40.2023 8.184 40.4903 8.736 40.6663 9.36C40.8583 9.968 40.9303 10.616 40.8823 11.304C40.8343 11.976 40.6823 12.656 40.4263 13.344H32.2903C32.3383 14.144 32.6983 14.736 33.3703 15.12C34.0583 15.504 34.8823 15.696 35.8423 15.696C37.2983 15.696 38.5543 15.432 39.6103 14.904L39.2023 17.616C38.0823 18.096 36.6903 18.336 35.0263 18.336C33.8263 18.336 32.7543 18.096 31.8103 17.616C30.8663 17.136 30.1383 16.408 29.6263 15.432C29.1303 14.456 28.9783 13.312 29.1703 12ZM37.7863 11.184C37.9463 10.608 37.8743 10.048 37.5703 9.504C37.2663 8.96 36.6663 8.688 35.7703 8.688C35.0023 8.688 34.3223 8.92 33.7303 9.384C33.1543 9.848 32.7863 10.448 32.6263 11.184H37.7863ZM44.7216 0.48H48.0576L45.2736 18H41.9376L44.7216 0.48ZM51.2925 3.144L54.7245 2.328L54.0765 6.48H57.7245L57.2685 9.288H53.6205L52.8765 13.896C52.7805 14.488 52.8525 14.912 53.0925 15.168C53.3325 15.408 53.7645 15.528 54.3885 15.528C55.1885 15.528 55.9325 15.384 56.6205 15.096L56.1885 17.832C55.4205 18.168 54.4205 18.336 53.1885 18.336C51.9725 18.336 51.0045 18.008 50.2845 17.352C49.5645 16.68 49.3085 15.68 49.5165 14.352L50.3085 9.288H48.3645L48.8205 6.48H50.7405L51.2925 3.144ZM58.3734 12C58.5174 11.008 58.8214 10.128 59.2854 9.36C59.7494 8.576 60.2934 7.96 60.9174 7.512C61.5574 7.064 62.2214 6.728 62.9094 6.504C63.6134 6.264 64.3174 6.144 65.0214 6.144C65.9174 6.144 66.7094 6.288 67.3974 6.576C68.0854 6.848 68.6214 7.224 69.0054 7.704C69.4054 8.184 69.6934 8.736 69.8694 9.36C70.0614 9.968 70.1334 10.616 70.0854 11.304C70.0374 11.976 69.8854 12.656 69.6294 13.344H61.4934C61.5414 14.144 61.9014 14.736 62.5734 15.12C63.2614 15.504 64.0854 15.696 65.0454 15.696C66.5014 15.696 67.7574 15.432 68.8134 14.904L68.4054 17.616C67.2854 18.096 65.8934 18.336 64.2294 18.336C63.0294 18.336 61.9574 18.096 61.0134 17.616C60.0694 17.136 59.3414 16.408 58.8294 15.432C58.3334 14.456 58.1814 13.312 58.3734 12ZM66.9894 11.184C67.1494 10.608 67.0774 10.048 66.7734 9.504C66.4694 8.96 65.8694 8.688 64.9734 8.688C64.2054 8.688 63.5254 8.92 62.9334 9.384C62.3574 9.848 61.9894 10.448 61.8294 11.184H66.9894ZM75.6047 8.16C76.6767 6.672 78.3487 6.04 80.6207 6.264L80.1167 9.48C79.1407 9.272 78.2367 9.344 77.4047 9.696C76.5727 10.048 75.9247 10.6 75.4607 11.352L74.4287 18H71.0927L72.9167 6.48H75.8687L75.6047 8.16Z" fill="#EDB507"/>
<path d="M83.5866 1.2H95.4426L94.9386 4.44H86.6586L86.0586 8.352H93.6186L93.1146 11.592H85.5306L84.5226 18H80.9226L83.5866 1.2ZM107.561 12.528C107.273 14.368 106.433 15.8 105.041 16.824C103.649 17.832 102.113 18.336 100.433 18.336C98.6405 18.336 97.1925 17.768 96.0885 16.632C95.0005 15.48 94.6085 13.92 94.9125 11.952C95.2165 10.096 96.0485 8.664 97.4085 7.656C98.7845 6.648 100.345 6.144 102.089 6.144C103.817 6.144 105.241 6.72 106.361 7.872C107.481 9.024 107.881 10.576 107.561 12.528ZM98.2245 12.288C98.0965 13.168 98.2405 13.904 98.6565 14.496C99.0885 15.072 99.7685 15.36 100.697 15.36C101.625 15.36 102.409 15.072 103.049 14.496C103.689 13.904 104.089 13.136 104.249 12.192C104.377 11.312 104.233 10.584 103.817 10.008C103.401 9.416 102.737 9.12 101.825 9.12C100.881 9.12 100.081 9.416 99.4245 10.008C98.7845 10.584 98.3845 11.344 98.2245 12.288ZM113.339 8.16C114.411 6.672 116.083 6.04 118.355 6.264L117.851 9.48C116.875 9.272 115.971 9.344 115.139 9.696C114.307 10.048 113.659 10.6 113.195 11.352L112.163 18H108.827L110.651 6.48H113.603L113.339 8.16Z" fill="#713EDD"/>
<path d="M134.521 18H130.897L130.153 14.856H122.449L120.745 18H116.929L126.433 1.2H130.345L134.521 18ZM127.345 5.952L124.057 11.88H129.481L128.137 5.952C128.025 5.52 127.961 5.04 127.945 4.512C127.721 5.152 127.521 5.632 127.345 5.952ZM140.503 7.968C141.799 6.752 143.207 6.144 144.727 6.144C146.119 6.144 147.159 6.6 147.847 7.512C148.551 8.424 148.799 9.56 148.591 10.92L147.463 18H144.127L145.207 11.208C145.319 10.456 145.215 9.904 144.895 9.552C144.591 9.2 144.127 9.024 143.503 9.024C142.447 9.024 141.439 9.536 140.479 10.56L139.327 18H135.991L137.815 6.48H140.743L140.503 7.968ZM153.508 18H150.172L151.996 6.48H155.332L153.508 18ZM156.196 2.88C156.1 3.456 155.86 3.888 155.476 4.176C155.092 4.448 154.636 4.584 154.108 4.584C153.516 4.584 153.044 4.4 152.692 4.032C152.356 3.664 152.236 3.144 152.332 2.472C152.428 1.896 152.668 1.472 153.052 1.2C153.436 0.911999 153.892 0.767999 154.42 0.767999C155.012 0.767999 155.476 0.951999 155.812 1.32C156.164 1.688 156.292 2.208 156.196 2.88ZM167.999 7.824C169.327 6.704 170.679 6.144 172.055 6.144C173.047 6.144 173.855 6.4 174.479 6.912C175.103 7.408 175.503 8 175.679 8.688C175.855 9.36 175.887 10.064 175.775 10.8L174.623 18H171.311L172.463 10.752C172.543 10.208 172.447 9.784 172.175 9.48C171.903 9.176 171.511 9.024 170.999 9.024C170.103 9.024 169.255 9.44 168.455 10.272C168.455 10.4 168.439 10.576 168.407 10.8L167.255 18H163.943L165.095 10.752C165.175 10.208 165.079 9.784 164.807 9.48C164.535 9.176 164.143 9.024 163.631 9.024C162.623 9.024 161.695 9.536 160.847 10.56L159.671 18H156.335L158.159 6.48H161.087L160.871 7.872C161.319 7.408 161.903 7.008 162.623 6.672C163.343 6.32 164.087 6.144 164.855 6.144C166.359 6.144 167.407 6.704 167.999 7.824ZM186.744 16.296C185.672 17.656 184.224 18.336 182.4 18.336C180.656 18.336 179.352 17.712 178.488 16.464C177.64 15.216 177.352 13.736 177.624 12.024C177.88 10.408 178.584 9.024 179.736 7.872C180.904 6.72 182.336 6.144 184.032 6.144C185.872 6.144 187.192 6.896 187.992 8.4L188.304 6.48H191.232L189.408 18H186.48L186.744 16.296ZM180.936 12.312C180.792 13.208 180.936 13.968 181.368 14.592C181.8 15.216 182.456 15.528 183.336 15.528C184.072 15.528 184.744 15.336 185.352 14.952C185.96 14.568 186.44 14.088 186.792 13.512L187.248 10.824C187.104 10.28 186.8 9.832 186.336 9.48C185.888 9.128 185.336 8.952 184.68 8.952C183.704 8.952 182.872 9.272 182.184 9.912C181.512 10.536 181.096 11.336 180.936 12.312ZM195.003 0.48H198.339L195.555 18H192.219L195.003 0.48Z" fill="#10C6FF"/>
</svg>
